<svg xmlns="http://www.w3.org/2000/svg" xmlns:xlink="http://www.w3.org/1999/xlink" width="500" zoomAndPan="magnify" viewBox="0 0 375 374.999991" height="500" preserveAspectRatio="xMidYMid meet" version="1.2"><defs><clipPath id="99bd6e4491"><path d="M 19 171 L 55.847656 171 L 55.847656 217 L 19 217 Z M 19 171 "/></clipPath><clipPath id="81b76a714c"><path d="M 17 157.800781 L 54 157.800781 L 54 203 L 17 203 Z M 17 157.800781 "/></clipPath></defs><g id="06556d94d7"><g clip-rule="nonzero" clip-path="url(#99bd6e4491)"><path style=" stroke:none;fill-rule:nonzero;fill:#000000;fill-opacity:1;" d="M 55.429688 195.871094 C 55.078125 191.210938 52.734375 187.511719 49.574219 184.273438 C 46.863281 181.492188 44.09375 178.761719 41.273438 176.089844 C 39.898438 174.785156 38.710938 173.238281 36.953125 172.378906 C 36.886719 172.355469 36.824219 172.332031 36.757812 172.308594 C 36.609375 172.246094 36.457031 172.183594 36.308594 172.125 C 34.875 171.628906 33.671875 171.953125 32.621094 173.121094 C 31.617188 174.238281 31.417969 175.546875 32.105469 176.933594 C 32.941406 178.613281 34.355469 179.789062 35.722656 181.003906 C 38.722656 184 41.769531 186.941406 44.707031 189.996094 C 48.015625 193.441406 48.847656 197.503906 47.210938 201.996094 C 45.773438 205.949219 42.875 208.242188 38.785156 209.082031 C 38.71875 209.09375 38.65625 209.109375 38.589844 209.121094 C 38.359375 209.136719 38.132812 209.152344 37.902344 209.167969 C 37.519531 209.164062 37.136719 209.148438 36.757812 209.152344 C 33.453125 209.179688 30.660156 208.046875 28.457031 205.535156 C 27.746094 204.722656 27.171875 203.820312 26.566406 202.9375 C 25.828125 201.871094 24.941406 200.980469 23.554688 200.867188 C 20.691406 200.632812 18.722656 203.507812 20.066406 206.222656 C 22.300781 210.746094 25.753906 214.066406 30.574219 215.78125 C 32.9375 216.621094 35.378906 217.027344 37.890625 216.46875 C 38.757812 216.519531 39.585938 216.304688 40.425781 216.128906 C 40.507812 216.097656 40.589844 216.066406 40.675781 216.035156 C 40.984375 215.960938 41.292969 215.890625 41.601562 215.816406 L 41.695312 215.847656 C 41.695312 215.847656 41.753906 215.773438 41.753906 215.773438 C 42.183594 215.847656 42.417969 215.421875 42.773438 215.359375 C 46.167969 214.726562 48.710938 212.609375 50.886719 210.207031 C 54.527344 206.183594 55.835938 201.246094 55.429688 195.871094 Z M 36.3125 180.671875 C 36.375 180.601562 36.417969 180.527344 36.453125 180.445312 C 36.417969 180.527344 36.375 180.601562 36.3125 180.671875 Z M 36.3125 180.671875 "/></g><g clip-rule="nonzero" clip-path="url(#81b76a714c)"><path style=" stroke:none;fill-rule:nonzero;fill:#000000;fill-opacity:1;" d="M 24.914062 191.882812 C 27.476562 194.5 29.992188 197.171875 32.824219 199.511719 C 33.484375 200.144531 34.101562 200.824219 34.8125 201.398438 C 36.535156 202.796875 39.175781 202.828125 40.398438 201.523438 C 41.65625 200.175781 41.441406 197.859375 39.757812 196.148438 C 37.71875 194.082031 35.765625 191.929688 33.558594 190.035156 C 32.066406 188.199219 30.171875 186.769531 28.574219 185.035156 C 27.640625 184.015625 26.59375 183.011719 26.046875 181.808594 C 24.066406 177.453125 24.554688 173.277344 27.507812 169.46875 C 27.984375 168.855469 28.4375 168.222656 29.109375 167.734375 C 30.929688 166.417969 32.964844 165.761719 35.144531 165.4375 C 38.402344 165.277344 41.339844 166.050781 43.789062 168.347656 C 45.054688 169.53125 45.855469 171.070312 46.984375 172.363281 C 48.050781 173.585938 49.414062 174.152344 50.8125 173.664062 C 52.382812 173.113281 53.328125 171.78125 53.289062 170.191406 C 53.261719 169.125 52.894531 168.164062 52.359375 167.269531 C 51.292969 165.496094 49.976562 163.964844 48.40625 162.578125 C 45.492188 159.996094 42.167969 158.539062 38.339844 158.132812 C 38.183594 158.117188 38.027344 158.097656 37.871094 158.078125 C 37.121094 157.832031 36.355469 157.949219 35.59375 157.96875 C 35.367188 157.960938 35.140625 157.929688 34.914062 157.941406 C 27.171875 158.347656 20.109375 164.121094 18.238281 171.636719 C 16.84375 177.246094 17.476562 182.535156 20.847656 187.382812 C 22.015625 189.066406 23.5 190.441406 24.914062 191.882812 Z M 24.914062 191.882812 "/></g><g style="fill:#ffffff;fill-opacity:1;"><g transform="translate(62.850671, 205.903786)"><path style="stroke:none" d="M 31.828125 -32.40625 C 33.585938 -31.539062 34.46875 -30.582031 34.46875 -29.53125 C 34.46875 -29.050781 34.242188 -28.335938 33.796875 -27.390625 L 21.40625 -2.25 C 21.082031 -1.582031 20.582031 -1.046875 19.90625 -0.640625 C 19.238281 -0.242188 18.546875 -0.046875 17.828125 -0.046875 L 17.375 -0.046875 C 16.625 -0.046875 15.910156 -0.242188 15.234375 -0.640625 C 14.566406 -1.046875 14.066406 -1.582031 13.734375 -2.25 L 1.34375 -27.390625 C 0.894531 -28.335938 0.671875 -29.050781 0.671875 -29.53125 C 0.671875 -30.582031 1.554688 -31.539062 3.328125 -32.40625 C 4.304688 -32.914062 5.054688 -33.171875 5.578125 -33.171875 C 6.109375 -33.171875 6.507812 -33.109375 6.78125 -32.984375 C 7.050781 -32.867188 7.304688 -32.660156 7.546875 -32.359375 C 7.816406 -32.003906 8.0625 -31.609375 8.28125 -31.171875 C 8.507812 -30.742188 9.085938 -29.503906 10.015625 -27.453125 C 10.941406 -25.398438 11.9375 -23.222656 13 -20.921875 C 14.0625 -18.617188 15.0625 -16.441406 16 -14.390625 C 16.945312 -12.335938 17.476562 -11.191406 17.59375 -10.953125 L 26.578125 -30.609375 C 26.816406 -31.179688 27.023438 -31.632812 27.203125 -31.96875 C 27.742188 -32.769531 28.398438 -33.171875 29.171875 -33.171875 C 29.953125 -33.171875 30.835938 -32.914062 31.828125 -32.40625 Z M 31.828125 -32.40625 "/></g></g><g style="fill:#ffffff;fill-opacity:1;"><g transform="translate(97.993929, 205.903786)"><path style="stroke:none" d="M 20.78125 -30.578125 L 32.90625 -5.515625 C 33.414062 -4.503906 33.671875 -3.742188 33.671875 -3.234375 C 33.671875 -2.148438 32.800781 -1.175781 31.0625 -0.3125 C 30.039062 0.195312 29.238281 0.453125 28.65625 0.453125 C 28.070312 0.453125 27.59375 0.316406 27.21875 0.046875 C 26.851562 -0.222656 26.585938 -0.503906 26.421875 -0.796875 C 26.253906 -1.097656 26.019531 -1.550781 25.71875 -2.15625 L 23.390625 -7 L 10.953125 -7 L 8.625 -2.15625 C 8.320312 -1.550781 8.085938 -1.113281 7.921875 -0.84375 C 7.753906 -0.582031 7.484375 -0.304688 7.109375 -0.015625 C 6.734375 0.265625 6.253906 0.40625 5.671875 0.40625 C 5.085938 0.40625 4.289062 0.148438 3.28125 -0.359375 C 1.539062 -1.191406 0.671875 -2.148438 0.671875 -3.234375 C 0.671875 -3.742188 0.925781 -4.503906 1.4375 -5.515625 L 13.5625 -30.609375 C 13.882812 -31.296875 14.382812 -31.847656 15.0625 -32.265625 C 15.738281 -32.691406 16.445312 -32.90625 17.1875 -32.90625 C 18.8125 -32.90625 20.007812 -32.128906 20.78125 -30.578125 Z M 17.140625 -19.796875 L 14.1875 -13.640625 L 20.15625 -13.640625 Z M 17.140625 -19.796875 "/></g></g><g style="fill:#ffffff;fill-opacity:1;"><g transform="translate(132.329292, 205.903786)"><path style="stroke:none" d="M 26.984375 -5.5625 C 27.429688 -4.488281 27.65625 -3.710938 27.65625 -3.234375 C 27.65625 -2.097656 26.726562 -1.140625 24.875 -0.359375 C 23.914062 0.0546875 23.144531 0.265625 22.5625 0.265625 C 21.976562 0.265625 21.5 0.125 21.125 -0.15625 C 20.75 -0.4375 20.472656 -0.726562 20.296875 -1.03125 C 19.992188 -1.601562 18.828125 -4.3125 16.796875 -9.15625 L 15.390625 -9.0625 L 9.734375 -9.0625 L 9.734375 -4 C 9.734375 -3.3125 9.710938 -2.796875 9.671875 -2.453125 C 9.628906 -2.109375 9.488281 -1.707031 9.25 -1.25 C 8.832031 -0.445312 7.664062 -0.046875 5.75 -0.046875 C 3.65625 -0.046875 2.425781 -0.597656 2.0625 -1.703125 C 1.882812 -2.210938 1.796875 -2.992188 1.796875 -4.046875 L 1.796875 -28.953125 C 1.796875 -29.640625 1.816406 -30.15625 1.859375 -30.5 C 1.910156 -30.84375 2.054688 -31.238281 2.296875 -31.6875 C 2.710938 -32.5 3.878906 -32.90625 5.796875 -32.90625 L 15.484375 -32.90625 C 18.117188 -32.90625 20.675781 -31.945312 23.15625 -30.03125 C 24.351562 -29.101562 25.34375 -27.84375 26.125 -26.25 C 26.90625 -24.664062 27.296875 -22.90625 27.296875 -20.96875 C 27.296875 -17.582031 26.171875 -14.796875 23.921875 -12.609375 C 24.585938 -11.023438 25.609375 -8.675781 26.984375 -5.5625 Z M 9.734375 -17.015625 L 15.484375 -17.015625 C 16.359375 -17.015625 17.226562 -17.34375 18.09375 -18 C 18.957031 -18.65625 19.390625 -19.640625 19.390625 -20.953125 C 19.390625 -22.273438 18.957031 -23.269531 18.09375 -23.9375 C 17.226562 -24.613281 16.328125 -24.953125 15.390625 -24.953125 L 9.734375 -24.953125 Z M 9.734375 -17.015625 "/></g></g><g style="fill:#ffffff;fill-opacity:1;"><g transform="translate(160.650362, 205.903786)"><path style="stroke:none" d="M 17.234375 -33.3125 C 21.660156 -33.3125 25.503906 -31.707031 28.765625 -28.5 C 32.035156 -25.300781 33.671875 -21.328125 33.671875 -16.578125 C 33.671875 -11.835938 32.113281 -7.800781 29 -4.46875 C 25.882812 -1.132812 22.050781 0.53125 17.5 0.53125 C 12.957031 0.53125 9.09375 -1.113281 5.90625 -4.40625 C 2.71875 -7.695312 1.125 -11.613281 1.125 -16.15625 C 1.125 -18.644531 1.570312 -20.972656 2.46875 -23.140625 C 3.363281 -25.304688 4.5625 -27.125 6.0625 -28.59375 C 7.5625 -30.0625 9.28125 -31.210938 11.21875 -32.046875 C 13.164062 -32.890625 15.171875 -33.3125 17.234375 -33.3125 Z M 9.0625 -16.375 C 9.0625 -13.71875 9.921875 -11.554688 11.640625 -9.890625 C 13.367188 -8.234375 15.296875 -7.40625 17.421875 -7.40625 C 19.546875 -7.40625 21.457031 -8.210938 23.15625 -9.828125 C 24.863281 -11.441406 25.71875 -13.609375 25.71875 -16.328125 C 25.71875 -19.054688 24.859375 -21.242188 23.140625 -22.890625 C 21.421875 -24.535156 19.5 -25.359375 17.375 -25.359375 C 15.25 -25.359375 13.332031 -24.523438 11.625 -22.859375 C 9.914062 -21.203125 9.0625 -19.039062 9.0625 -16.375 Z M 9.0625 -16.375 "/></g></g><g style="fill:#ffffff;fill-opacity:1;"><g transform="translate(195.434551, 205.903786)"><path style="stroke:none" d="M 23.046875 -31.53125 C 23.335938 -32.0625 23.765625 -32.414062 24.328125 -32.59375 C 24.898438 -32.769531 25.613281 -32.859375 26.46875 -32.859375 C 27.320312 -32.859375 28.007812 -32.78125 28.53125 -32.625 C 29.050781 -32.476562 29.4375 -32.300781 29.6875 -32.09375 C 29.945312 -31.882812 30.132812 -31.570312 30.25 -31.15625 C 30.4375 -30.675781 30.53125 -29.910156 30.53125 -28.859375 L 30.53125 -3.953125 C 30.53125 -3.234375 30.503906 -2.707031 30.453125 -2.375 C 30.410156 -2.050781 30.269531 -1.664062 30.03125 -1.21875 C 29.613281 -0.40625 28.445312 0 26.53125 0 C 25.363281 0 24.554688 -0.0859375 24.109375 -0.265625 C 23.660156 -0.441406 23.285156 -0.726562 22.984375 -1.125 C 16.253906 -10.101562 11.828125 -15.96875 9.703125 -18.71875 L 9.703125 -3.953125 C 9.703125 -3.234375 9.675781 -2.707031 9.625 -2.375 C 9.582031 -2.050781 9.441406 -1.664062 9.203125 -1.21875 C 8.785156 -0.40625 7.617188 0 5.703125 0 C 3.847656 0 2.710938 -0.40625 2.296875 -1.21875 C 2.054688 -1.664062 1.910156 -2.066406 1.859375 -2.421875 C 1.816406 -2.785156 1.796875 -3.3125 1.796875 -4 L 1.796875 -29.046875 C 1.796875 -30.179688 1.9375 -31.007812 2.21875 -31.53125 C 2.507812 -32.0625 2.9375 -32.414062 3.5 -32.59375 C 4.070312 -32.769531 4.804688 -32.859375 5.703125 -32.859375 C 6.597656 -32.859375 7.304688 -32.773438 7.828125 -32.609375 C 8.359375 -32.441406 8.726562 -32.253906 8.9375 -32.046875 C 9.050781 -31.960938 9.394531 -31.578125 9.96875 -30.890625 C 16.28125 -22.296875 20.5 -16.625 22.625 -13.875 L 22.625 -29.046875 C 22.625 -30.179688 22.765625 -31.007812 23.046875 -31.53125 Z M 23.046875 -31.53125 "/></g></g><g style="fill:#ffffff;fill-opacity:1;"><g transform="translate(227.750192, 205.903786)"><path style="stroke:none" d="M 36.765625 -31.640625 C 37.003906 -31.191406 37.144531 -30.785156 37.1875 -30.421875 C 37.238281 -30.066406 37.265625 -29.546875 37.265625 -28.859375 L 37.265625 -3.953125 C 37.265625 -1.890625 36.691406 -0.675781 35.546875 -0.3125 C 34.984375 -0.132812 34.265625 -0.046875 33.390625 -0.046875 C 32.523438 -0.046875 31.835938 -0.117188 31.328125 -0.265625 C 30.828125 -0.421875 30.441406 -0.601562 30.171875 -0.8125 C 29.898438 -1.019531 29.6875 -1.316406 29.53125 -1.703125 C 29.382812 -2.210938 29.3125 -2.992188 29.3125 -4.046875 L 29.3125 -19.078125 C 28.5625 -18.148438 27.46875 -16.675781 26.03125 -14.65625 C 24.59375 -12.632812 23.679688 -11.367188 23.296875 -10.859375 C 22.910156 -10.347656 22.640625 -9.992188 22.484375 -9.796875 C 22.335938 -9.609375 21.972656 -9.34375 21.390625 -9 C 20.804688 -8.65625 20.175781 -8.484375 19.5 -8.484375 C 18.832031 -8.484375 18.21875 -8.640625 17.65625 -8.953125 C 17.101562 -9.265625 16.707031 -9.570312 16.46875 -9.875 L 16.109375 -10.375 C 15.515625 -11.113281 14.332031 -12.703125 12.5625 -15.140625 C 10.800781 -17.585938 9.847656 -18.898438 9.703125 -19.078125 L 9.703125 -3.953125 C 9.703125 -3.265625 9.675781 -2.75 9.625 -2.40625 C 9.582031 -2.0625 9.441406 -1.675781 9.203125 -1.25 C 8.753906 -0.445312 7.585938 -0.046875 5.703125 -0.046875 C 3.878906 -0.046875 2.742188 -0.445312 2.296875 -1.25 C 2.054688 -1.675781 1.910156 -2.066406 1.859375 -2.421875 C 1.816406 -2.785156 1.796875 -3.328125 1.796875 -4.046875 L 1.796875 -28.953125 C 1.796875 -29.640625 1.816406 -30.15625 1.859375 -30.5 C 1.910156 -30.84375 2.054688 -31.238281 2.296875 -31.6875 C 2.742188 -32.46875 3.910156 -32.859375 5.796875 -32.859375 C 6.597656 -32.859375 7.289062 -32.757812 7.875 -32.5625 C 8.457031 -32.375 8.835938 -32.175781 9.015625 -31.96875 L 9.296875 -31.6875 L 19.484375 -18.3125 C 24.566406 -25.050781 27.960938 -29.492188 29.671875 -31.640625 C 30.179688 -32.453125 31.382812 -32.859375 33.28125 -32.859375 C 35.1875 -32.859375 36.347656 -32.453125 36.765625 -31.640625 Z M 36.765625 -31.640625 "/></g></g><g style="fill:#ffffff;fill-opacity:1;"><g transform="translate(266.798243, 205.903786)"><path style="stroke:none" d="M 20.78125 -30.578125 L 32.90625 -5.515625 C 33.414062 -4.503906 33.671875 -3.742188 33.671875 -3.234375 C 33.671875 -2.148438 32.800781 -1.175781 31.0625 -0.3125 C 30.039062 0.195312 29.238281 0.453125 28.65625 0.453125 C 28.070312 0.453125 27.59375 0.316406 27.21875 0.046875 C 26.851562 -0.222656 26.585938 -0.503906 26.421875 -0.796875 C 26.253906 -1.097656 26.019531 -1.550781 25.71875 -2.15625 L 23.390625 -7 L 10.953125 -7 L 8.625 -2.15625 C 8.320312 -1.550781 8.085938 -1.113281 7.921875 -0.84375 C 7.753906 -0.582031 7.484375 -0.304688 7.109375 -0.015625 C 6.734375 0.265625 6.253906 0.40625 5.671875 0.40625 C 5.085938 0.40625 4.289062 0.148438 3.28125 -0.359375 C 1.539062 -1.191406 0.671875 -2.148438 0.671875 -3.234375 C 0.671875 -3.742188 0.925781 -4.503906 1.4375 -5.515625 L 13.5625 -30.609375 C 13.882812 -31.296875 14.382812 -31.847656 15.0625 -32.265625 C 15.738281 -32.691406 16.445312 -32.90625 17.1875 -32.90625 C 18.8125 -32.90625 20.007812 -32.128906 20.78125 -30.578125 Z M 17.140625 -19.796875 L 14.1875 -13.640625 L 20.15625 -13.640625 Z M 17.140625 -19.796875 "/></g></g><g style="fill:#ffffff;fill-opacity:1;"><g transform="translate(301.13363, 205.903786)"><path style="stroke:none" d="M 26.984375 -5.5625 C 27.429688 -4.488281 27.65625 -3.710938 27.65625 -3.234375 C 27.65625 -2.097656 26.726562 -1.140625 24.875 -0.359375 C 23.914062 0.0546875 23.144531 0.265625 22.5625 0.265625 C 21.976562 0.265625 21.5 0.125 21.125 -0.15625 C 20.75 -0.4375 20.472656 -0.726562 20.296875 -1.03125 C 19.992188 -1.601562 18.828125 -4.3125 16.796875 -9.15625 L 15.390625 -9.0625 L 9.734375 -9.0625 L 9.734375 -4 C 9.734375 -3.3125 9.710938 -2.796875 9.671875 -2.453125 C 9.628906 -2.109375 9.488281 -1.707031 9.25 -1.25 C 8.832031 -0.445312 7.664062 -0.046875 5.75 -0.046875 C 3.65625 -0.046875 2.425781 -0.597656 2.0625 -1.703125 C 1.882812 -2.210938 1.796875 -2.992188 1.796875 -4.046875 L 1.796875 -28.953125 C 1.796875 -29.640625 1.816406 -30.15625 1.859375 -30.5 C 1.910156 -30.84375 2.054688 -31.238281 2.296875 -31.6875 C 2.710938 -32.5 3.878906 -32.90625 5.796875 -32.90625 L 15.484375 -32.90625 C 18.117188 -32.90625 20.675781 -31.945312 23.15625 -30.03125 C 24.351562 -29.101562 25.34375 -27.84375 26.125 -26.25 C 26.90625 -24.664062 27.296875 -22.90625 27.296875 -20.96875 C 27.296875 -17.582031 26.171875 -14.796875 23.921875 -12.609375 C 24.585938 -11.023438 25.609375 -8.675781 26.984375 -5.5625 Z M 9.734375 -17.015625 L 15.484375 -17.015625 C 16.359375 -17.015625 17.226562 -17.34375 18.09375 -18 C 18.957031 -18.65625 19.390625 -19.640625 19.390625 -20.953125 C 19.390625 -22.273438 18.957031 -23.269531 18.09375 -23.9375 C 17.226562 -24.613281 16.328125 -24.953125 15.390625 -24.953125 L 9.734375 -24.953125 Z M 9.734375 -17.015625 "/></g></g><g style="fill:#ffffff;fill-opacity:1;"><g transform="translate(329.454688, 205.903786)"><path style="stroke:none" d="M 15.890625 -16.515625 C 20.472656 -12.117188 23.71875 -8.8125 25.625 -6.59375 C 26.613281 -5.488281 27.109375 -4.554688 27.109375 -3.796875 C 27.109375 -3.035156 26.507812 -2.132812 25.3125 -1.09375 C 24.113281 -0.0625 23.132812 0.453125 22.375 0.453125 C 21.613281 0.453125 20.695312 -0.175781 19.625 -1.4375 L 9.734375 -12.703125 L 9.734375 -3.953125 C 9.734375 -3.234375 9.710938 -2.707031 9.671875 -2.375 C 9.628906 -2.050781 9.488281 -1.664062 9.25 -1.21875 C 8.832031 -0.40625 7.664062 0 5.75 0 C 3.65625 0 2.425781 -0.566406 2.0625 -1.703125 C 1.882812 -2.179688 1.796875 -2.945312 1.796875 -4 L 1.796875 -28.953125 C 1.796875 -29.640625 1.816406 -30.15625 1.859375 -30.5 C 1.910156 -30.84375 2.054688 -31.238281 2.296875 -31.6875 C 2.710938 -32.5 3.878906 -32.90625 5.796875 -32.90625 C 7.890625 -32.90625 9.128906 -32.351562 9.515625 -31.25 C 9.660156 -30.738281 9.734375 -29.957031 9.734375 -28.90625 L 9.734375 -20.328125 C 13.804688 -24.910156 17.101562 -28.671875 19.625 -31.609375 C 20.664062 -32.828125 21.570312 -33.4375 22.34375 -33.4375 C 23.125 -33.4375 24.113281 -32.921875 25.3125 -31.890625 C 26.507812 -30.859375 27.109375 -29.960938 27.109375 -29.203125 C 27.109375 -28.441406 26.660156 -27.535156 25.765625 -26.484375 C 24.023438 -24.484375 21.332031 -21.726562 17.6875 -18.21875 Z M 15.890625 -16.515625 "/></g></g></g></svg>