<svg xmlns="http://www.w3.org/2000/svg" xmlns:xlink="http://www.w3.org/1999/xlink" width="1000" zoomAndPan="magnify" viewBox="0 0 750 749.999995" height="1000" preserveAspectRatio="xMidYMid meet" version="1.2"><defs/><g id="73e1566f79"><g style="fill:#fde047;fill-opacity:1;"><g transform="translate(24.374558, 414)"><path style="stroke:none" d="M 50.855469 -8.023438 L 67.382812 -63.371094 C 71.390625 -73.15625 75.242188 -75.082031 75.242188 -78.292969 C 75.242188 -81.660156 70.589844 -83.265625 63.691406 -83.265625 L 62.570312 -83.265625 C 55.671875 -83.265625 51.179688 -81.660156 51.179688 -78.292969 C 51.179688 -75.082031 56.472656 -72.996094 54.707031 -67.863281 L 42.035156 -26.152344 C 37.542969 -41.550781 29.839844 -68.824219 29.839844 -68.824219 C 28.074219 -74.121094 31.125 -75.082031 31.125 -78.292969 C 31.125 -81.660156 25.507812 -83.265625 17.167969 -83.265625 L 15.5625 -83.265625 C 7.058594 -83.265625 1.445312 -81.660156 1.445312 -78.292969 C 1.445312 -75.082031 4.8125 -73.960938 8.984375 -61.605469 L 24.066406 -8.664062 C 26.632812 -1.605469 28.074219 0 38.023438 0 C 45.882812 0 48.289062 -1.121094 50.855469 -8.023438 Z M 50.855469 -8.023438 "/></g></g><g style="fill:#fde047;fill-opacity:1;"><g transform="translate(101.059961, 414)"><path style="stroke:none" d="M 34.652344 -22.460938 L 35.777344 -22.460938 C 42.996094 -22.460938 44.28125 -22.300781 45.882812 -17.488281 L 46.6875 -15.082031 C 46.6875 -14.761719 46.847656 -14.4375 46.847656 -14.4375 C 48.609375 -9.304688 44.601562 -8.183594 44.601562 -4.972656 C 44.601562 -1.605469 51.179688 0 59.679688 0 L 61.125 0 C 69.628906 0 75.882812 -1.605469 75.882812 -4.972656 C 75.882812 -8.183594 71.875 -9.304688 67.863281 -21.660156 C 66.417969 -25.828125 54.066406 -70.910156 52.621094 -74.761719 C 50.214844 -81.660156 49.734375 -83.105469 38.824219 -83.265625 L 24.867188 -83.265625 C 16.363281 -83.105469 12.191406 -81.179688 12.191406 -78.613281 C 12.191406 -76.367188 15.402344 -74.761719 19.894531 -73.316406 C 22.460938 -72.515625 24.546875 -72.035156 22.300781 -63.210938 L 21.175781 -59.679688 L 9.304688 -20.054688 C 5.292969 -10.269531 1.445312 -8.183594 1.445312 -4.972656 C 1.445312 -1.605469 6.097656 0 12.996094 0 L 14.117188 0 C 21.015625 0 25.507812 -1.605469 25.507812 -4.972656 C 25.507812 -8.183594 20.214844 -10.269531 22.140625 -15.402344 L 22.941406 -18.289062 C 24.386719 -22.300781 26.152344 -22.460938 34.652344 -22.460938 Z M 40.109375 -38.34375 L 40.109375 -37.863281 C 40.109375 -37.863281 40.269531 -37.703125 40.269531 -37.542969 L 40.589844 -36.417969 C 40.589844 -36.257812 40.589844 -36.097656 40.75 -35.9375 L 40.75 -35.777344 C 40.75 -35.617188 40.75 -35.296875 40.910156 -35.296875 C 41.230469 -32.40625 39.304688 -31.925781 34.8125 -31.925781 C 29.199219 -31.925781 27.753906 -32.246094 28.074219 -35.132812 L 34.652344 -57.113281 Z M 40.109375 -38.34375 "/></g></g><g style="fill:#fde047;fill-opacity:1;"><g transform="translate(179.189229, 414)"><path style="stroke:none" d="M 30.964844 -83.265625 L 15.402344 -83.265625 C 7.058594 -83.265625 1.445312 -81.660156 1.445312 -78.292969 C 1.445312 -75.082031 5.132812 -70.109375 5.132812 -64.65625 L 5.132812 -18.609375 C 5.132812 -13.15625 1.445312 -8.183594 1.445312 -4.972656 C 1.445312 -1.605469 7.058594 0 15.402344 0 L 17.003906 0 C 25.507812 0 31.125 -1.605469 31.125 -4.972656 C 31.125 -8.183594 27.273438 -13.15625 27.273438 -18.609375 L 27.273438 -23.582031 C 27.273438 -29.359375 28.558594 -30.804688 31.765625 -30.964844 C 38.023438 -30.964844 36.097656 -24.226562 43.796875 -11.550781 C 48.289062 -3.851562 55.992188 0 67.0625 0 C 76.527344 0 81.5 -2.726562 81.820312 -5.9375 C 82.140625 -7.859375 80.375 -9.304688 77.808594 -10.269531 C 74.921875 -11.390625 71.390625 -12.191406 66.578125 -17.96875 C 61.285156 -24.226562 59.199219 -29.519531 56.152344 -35.9375 C 64.492188 -40.429688 68.824219 -47.648438 68.824219 -56.953125 C 68.824219 -72.835938 56.632812 -83.265625 30.964844 -83.265625 Z M 32.566406 -40.269531 C 28.074219 -40.269531 27.273438 -41.550781 27.273438 -46.527344 L 27.273438 -64.65625 C 27.273438 -71.875 27.273438 -73.476562 32.085938 -73.476562 C 44.921875 -73.476562 46.203125 -64.492188 46.203125 -56.3125 C 46.203125 -48.289062 43.15625 -40.269531 32.566406 -40.269531 Z M 32.566406 -40.269531 "/></g></g><g style="fill:#fde047;fill-opacity:1;"><g transform="translate(262.612683, 414)"><path style="stroke:none" d="M 38.023438 -84.066406 C 16.523438 -84.066406 1.445312 -68.503906 1.445312 -41.550781 C 1.445312 -14.761719 16.523438 0.960938 38.023438 0.960938 C 59.519531 0.960938 74.601562 -14.761719 74.601562 -41.550781 C 74.601562 -68.503906 59.519531 -84.066406 38.023438 -84.066406 Z M 44.921875 -7.859375 C 39.144531 -6.738281 32.886719 -20.375 29.679688 -38.984375 C 28.234375 -47.488281 25.507812 -74.28125 31.605469 -75.242188 C 37.703125 -76.207031 42.355469 -63.851562 46.203125 -44.28125 C 49.894531 -25.988281 49.894531 -8.664062 44.921875 -7.859375 Z M 44.921875 -7.859375 "/></g></g><g style="fill:#fde047;fill-opacity:1;"><g transform="translate(338.656357, 414)"><path style="stroke:none" d="M 12.996094 -83.265625 C 6.097656 -83.265625 1.445312 -81.660156 1.445312 -78.292969 C 1.445312 -75.082031 6.738281 -70.109375 6.738281 -64.65625 L 6.738281 -18.609375 C 6.738281 -13.15625 1.445312 -8.183594 1.445312 -4.972656 C 1.445312 -1.605469 6.097656 0 12.996094 0 L 14.117188 0 C 21.015625 0 25.667969 -1.605469 25.667969 -4.972656 C 25.667969 -8.183594 20.375 -13.15625 20.375 -18.609375 L 20.375 -47.488281 C 28.878906 -33.53125 40.429688 -16.683594 47.96875 -7.539062 C 51.339844 -3.367188 54.066406 0 57.753906 0 C 61.925781 0 63.851562 -3.851562 63.851562 -8.503906 L 63.851562 -64.65625 C 63.851562 -70.109375 68.984375 -75.082031 68.984375 -78.292969 C 68.984375 -81.660156 64.492188 -83.265625 57.59375 -83.265625 L 56.472656 -83.265625 C 49.574219 -83.265625 44.921875 -81.660156 44.921875 -78.292969 C 44.921875 -75.082031 50.214844 -70.109375 50.214844 -64.65625 L 50.214844 -40.75 L 30 -73.476562 C 23.261719 -81.980469 20.214844 -83.265625 12.996094 -83.265625 Z M 12.996094 -83.265625 "/></g></g><g style="fill:#fde047;fill-opacity:1;"><g transform="translate(409.084988, 414)"><path style="stroke:none" d="M 52.621094 -4.972656 C 52.621094 -1.605469 58.398438 0 66.898438 0 L 68.503906 0 C 76.847656 0 82.621094 -1.605469 82.621094 -4.972656 C 82.621094 -8.183594 78.613281 -13.15625 78.613281 -18.609375 L 78.613281 -64.65625 C 78.613281 -70.109375 82.621094 -75.082031 82.621094 -78.292969 C 82.621094 -81.660156 77.96875 -83.265625 69.144531 -83.265625 L 68.984375 -83.265625 C 58.238281 -83.265625 56.632812 -78.128906 52.460938 -68.984375 L 41.871094 -44.441406 L 32.246094 -73.15625 C 28.074219 -82.460938 22.621094 -83.265625 14.117188 -83.265625 L 12.996094 -83.265625 C 6.097656 -83.265625 1.445312 -81.660156 1.445312 -78.292969 C 1.445312 -75.082031 6.738281 -70.109375 6.738281 -64.65625 L 6.738281 -18.609375 C 6.738281 -13.15625 1.445312 -8.183594 1.445312 -4.972656 C 1.445312 -1.605469 6.097656 0 12.996094 0 L 14.117188 0 C 21.015625 0 25.667969 -1.605469 25.667969 -4.972656 C 25.667969 -8.183594 20.375 -13.15625 20.375 -18.609375 L 20.375 -42.515625 L 30.644531 -14.117188 C 34.972656 -4.972656 38.984375 -4.332031 43.316406 -13.636719 C 47.167969 -21.980469 51.980469 -33.53125 56.632812 -44.441406 L 56.632812 -18.609375 C 56.632812 -13.15625 52.621094 -8.183594 52.621094 -4.972656 Z M 52.621094 -4.972656 "/></g></g><g style="fill:#fde047;fill-opacity:1;"><g transform="translate(493.15017, 414)"><path style="stroke:none" d="M 34.652344 -22.460938 L 35.777344 -22.460938 C 42.996094 -22.460938 44.28125 -22.300781 45.882812 -17.488281 L 46.6875 -15.082031 C 46.6875 -14.761719 46.847656 -14.4375 46.847656 -14.4375 C 48.609375 -9.304688 44.601562 -8.183594 44.601562 -4.972656 C 44.601562 -1.605469 51.179688 0 59.679688 0 L 61.125 0 C 69.628906 0 75.882812 -1.605469 75.882812 -4.972656 C 75.882812 -8.183594 71.875 -9.304688 67.863281 -21.660156 C 66.417969 -25.828125 54.066406 -70.910156 52.621094 -74.761719 C 50.214844 -81.660156 49.734375 -83.105469 38.824219 -83.265625 L 24.867188 -83.265625 C 16.363281 -83.105469 12.191406 -81.179688 12.191406 -78.613281 C 12.191406 -76.367188 15.402344 -74.761719 19.894531 -73.316406 C 22.460938 -72.515625 24.546875 -72.035156 22.300781 -63.210938 L 21.175781 -59.679688 L 9.304688 -20.054688 C 5.292969 -10.269531 1.445312 -8.183594 1.445312 -4.972656 C 1.445312 -1.605469 6.097656 0 12.996094 0 L 14.117188 0 C 21.015625 0 25.507812 -1.605469 25.507812 -4.972656 C 25.507812 -8.183594 20.214844 -10.269531 22.140625 -15.402344 L 22.941406 -18.289062 C 24.386719 -22.300781 26.152344 -22.460938 34.652344 -22.460938 Z M 40.109375 -38.34375 L 40.109375 -37.863281 C 40.109375 -37.863281 40.269531 -37.703125 40.269531 -37.542969 L 40.589844 -36.417969 C 40.589844 -36.257812 40.589844 -36.097656 40.75 -35.9375 L 40.75 -35.777344 C 40.75 -35.617188 40.75 -35.296875 40.910156 -35.296875 C 41.230469 -32.40625 39.304688 -31.925781 34.8125 -31.925781 C 29.199219 -31.925781 27.753906 -32.246094 28.074219 -35.132812 L 34.652344 -57.113281 Z M 40.109375 -38.34375 "/></g></g><g style="fill:#fde047;fill-opacity:1;"><g transform="translate(571.279438, 414)"><path style="stroke:none" d="M 30.964844 -83.265625 L 15.402344 -83.265625 C 7.058594 -83.265625 1.445312 -81.660156 1.445312 -78.292969 C 1.445312 -75.082031 5.132812 -70.109375 5.132812 -64.65625 L 5.132812 -18.609375 C 5.132812 -13.15625 1.445312 -8.183594 1.445312 -4.972656 C 1.445312 -1.605469 7.058594 0 15.402344 0 L 17.003906 0 C 25.507812 0 31.125 -1.605469 31.125 -4.972656 C 31.125 -8.183594 27.273438 -13.15625 27.273438 -18.609375 L 27.273438 -23.582031 C 27.273438 -29.359375 28.558594 -30.804688 31.765625 -30.964844 C 38.023438 -30.964844 36.097656 -24.226562 43.796875 -11.550781 C 48.289062 -3.851562 55.992188 0 67.0625 0 C 76.527344 0 81.5 -2.726562 81.820312 -5.9375 C 82.140625 -7.859375 80.375 -9.304688 77.808594 -10.269531 C 74.921875 -11.390625 71.390625 -12.191406 66.578125 -17.96875 C 61.285156 -24.226562 59.199219 -29.519531 56.152344 -35.9375 C 64.492188 -40.429688 68.824219 -47.648438 68.824219 -56.953125 C 68.824219 -72.835938 56.632812 -83.265625 30.964844 -83.265625 Z M 32.566406 -40.269531 C 28.074219 -40.269531 27.273438 -41.550781 27.273438 -46.527344 L 27.273438 -64.65625 C 27.273438 -71.875 27.273438 -73.476562 32.085938 -73.476562 C 44.921875 -73.476562 46.203125 -64.492188 46.203125 -56.3125 C 46.203125 -48.289062 43.15625 -40.269531 32.566406 -40.269531 Z M 32.566406 -40.269531 "/></g></g><g style="fill:#fde047;fill-opacity:1;"><g transform="translate(654.702926, 414)"><path style="stroke:none" d="M 5.292969 -64.65625 L 5.292969 -18.609375 C 5.292969 -13.15625 1.445312 -8.183594 1.445312 -4.972656 C 1.445312 -1.605469 7.058594 0 15.5625 0 L 17.167969 0 C 25.507812 0 31.285156 -1.605469 31.285156 -4.972656 C 31.285156 -8.183594 27.433594 -13.15625 27.433594 -18.609375 L 27.433594 -30.480469 C 28.398438 -31.605469 29.519531 -32.726562 30.480469 -34.011719 C 34.332031 -24.386719 40.910156 -9.304688 41.710938 -8.503906 C 45.402344 -3.53125 49.894531 0 59.679688 0 C 68.984375 0 76.527344 -2.726562 76.847656 -5.9375 C 77.007812 -7.21875 76.207031 -7.859375 73.476562 -8.34375 C 70.269531 -8.984375 68.023438 -10.269531 65.617188 -13.316406 C 64.65625 -14.597656 52.78125 -34.332031 48.933594 -46.847656 L 46.847656 -52.941406 C 53.425781 -60.804688 59.359375 -67.703125 63.050781 -71.070312 C 67.703125 -75.242188 72.996094 -77.167969 72.996094 -79.414062 C 72.996094 -82.140625 68.984375 -83.265625 58.558594 -83.265625 C 48.289062 -83.265625 43.796875 -82.460938 43.796875 -79.734375 C 43.796875 -78.453125 45.402344 -77.167969 46.042969 -75.402344 C 46.847656 -72.835938 46.847656 -69.46875 44.117188 -66.097656 C 42.195312 -63.851562 34.171875 -52.941406 27.433594 -44.28125 L 27.433594 -64.65625 C 27.433594 -70.109375 31.285156 -75.082031 31.285156 -78.292969 C 31.285156 -81.660156 25.507812 -83.265625 17.167969 -83.265625 L 15.5625 -83.265625 C 7.058594 -83.265625 1.445312 -81.660156 1.445312 -78.292969 C 1.445312 -75.082031 5.292969 -70.109375 5.292969 -64.65625 Z M 5.292969 -64.65625 "/></g></g></g></svg>